<?xml version="1.0" standalone="no"?>
<!DOCTYPE svg PUBLIC "-//W3C//DTD SVG 20010904//EN"
 "http://www.w3.org/TR/2001/REC-SVG-20010904/DTD/svg10.dtd">
<svg version="1.0" xmlns="http://www.w3.org/2000/svg"
 width="625.000000pt" height="225.000000pt" viewBox="0 0 625.000000 225.000000"
 preserveAspectRatio="xMidYMid meet">

<g transform="translate(0.000000,225.000000) scale(0.100000,-0.100000)"
fill="#000000" stroke="none">
<path d="M483 2239 c-210 -36 -385 -189 -456 -399 -21 -64 -22 -78 -25 -681
-3 -690 -2 -703 64 -839 51 -102 152 -203 254 -254 136 -66 148 -67 844 -64
603 3 623 4 676 24 214 82 352 235 395 439 22 103 22 1217 0 1320 -43 203
-193 369 -395 438 -64 21 -75 22 -685 23 -341 1 -643 -2 -672 -7z m742 -555
c24 -11 70 -66 163 -192 167 -229 172 -237 172 -295 0 -41 -10 -66 -66 -165
-75 -133 -90 -152 -115 -152 -24 0 -90 45 -81 56 4 4 -11 -7 -32 -25 -38 -32
-42 -33 -100 -28 -55 5 -64 9 -86 39 -25 33 -90 100 -146 150 -28 24 -34 25
-80 17 -36 -7 -58 -18 -82 -44 -18 -19 -37 -35 -42 -35 -5 0 -18 12 -29 26
-30 38 -28 109 4 156 21 31 33 38 82 48 32 7 64 14 73 16 8 3 5 -1 -7 -7 -13
-7 -23 -16 -23 -20 0 -4 13 -1 29 9 16 9 27 20 25 24 -3 5 3 8 13 8 29 0 116
45 138 71 l20 23 -29 -22 c-39 -30 -62 -28 -92 7 -13 16 -35 32 -48 35 -28 7
-98 -20 -161 -63 -31 -21 -47 -26 -59 -19 -36 20 -17 52 92 160 102 101 114
110 241 172 140 69 172 76 226 50z m266 -759 c0 -5 -9 -11 -21 -13 -20 -3 -27
8 -13 22 10 9 34 3 34 -9z m736 -191 c3 -8 -2 -23 -11 -32 -15 -15 -17 -15
-32 0 -21 21 -11 48 16 48 11 0 23 -7 27 -16z m-2039 -6 c16 -16 15 -48 -2
-48 -8 0 -16 7 -20 15 -4 10 -20 15 -51 15 l-45 0 0 -40 0 -40 45 0 c31 0 47
5 51 15 11 27 36 17 32 -12 -3 -27 -5 -28 -73 -31 -57 -2 -72 0 -82 14 -18 25
-16 89 3 108 19 19 124 22 142 4z m202 2 c21 -13 21 -107 0 -120 -19 -13 -131
-13 -150 0 -10 6 -15 26 -15 60 0 62 10 70 90 70 33 0 67 -5 75 -10z m201 0
c14 -8 19 -21 19 -51 0 -71 -10 -79 -100 -79 l-80 0 0 70 0 70 71 0 c39 0 79
-5 90 -10z m189 -5 c0 -12 -13 -15 -55 -15 -30 0 -55 -4 -55 -10 0 -5 25 -10
55 -10 41 0 55 -4 55 -14 0 -11 -15 -16 -52 -18 -74 -4 -77 -28 -4 -28 43 0
56 -3 56 -15 0 -12 -14 -15 -70 -15 l-70 0 0 70 0 70 70 0 c56 0 70 -3 70 -15z
m103 -30 c16 -25 32 -45 35 -45 4 0 20 20 35 45 21 33 35 45 53 45 23 0 24 -3
24 -70 0 -54 -3 -70 -14 -70 -11 0 -16 14 -18 48 l-3 47 -30 -47 c-16 -27 -37
-48 -45 -48 -8 0 -28 21 -45 48 l-30 47 -3 -48 c-3 -39 -6 -48 -20 -45 -14 3
-17 14 -15 68 1 36 2 66 3 68 0 1 10 2 23 2 15 0 30 -13 50 -45z m328 -20 c21
-33 38 -63 38 -67 2 -15 -37 -8 -43 7 -8 21 -84 20 -107 -1 -10 -9 -25 -14
-33 -12 -13 2 -8 17 25 71 51 86 68 86 120 2z m197 53 c23 -23 12 -28 -48 -21
-42 4 -60 2 -60 -6 0 -6 15 -11 34 -11 55 0 86 -16 86 -44 0 -36 -22 -47 -86
-44 -40 2 -60 8 -68 20 -14 23 0 35 24 20 24 -15 86 -16 95 -2 4 6 -10 10 -34
10 -60 0 -91 15 -91 44 0 14 8 30 18 35 24 14 115 14 130 -1z m200 -5 c2 -9
-8 -13 -32 -13 l-36 0 0 -55 c0 -48 -2 -55 -20 -55 -18 0 -20 7 -20 55 0 54 0
55 -30 55 -20 0 -30 5 -30 15 0 13 14 15 82 13 54 -2 83 -7 86 -15z m162 2 c0
-12 -13 -15 -55 -15 -30 0 -55 -4 -55 -10 0 -5 25 -10 55 -10 42 0 55 -3 55
-15 0 -12 -13 -15 -55 -15 -42 0 -55 -3 -55 -15 0 -12 13 -15 55 -15 43 0 55
-3 55 -15 0 -13 -12 -15 -71 -13 l-71 3 0 63 c1 34 1 64 1 67 1 3 33 5 71 5
56 0 70 -3 70 -15z m178 3 c5 -7 10 -39 10 -70 0 -51 -2 -58 -19 -58 -14 0
-19 7 -19 25 0 23 -4 25 -45 25 -41 0 -45 -2 -45 -25 0 -18 -5 -25 -20 -25
-18 0 -20 7 -20 70 l0 70 74 0 c47 0 77 -5 84 -12z m180 0 c22 -22 15 -38 -14
-28 -32 12 -94 13 -94 1 0 -5 25 -11 56 -13 53 -5 73 -17 74 -45 0 -28 -32
-43 -90 -43 -48 0 -61 4 -70 19 -12 23 5 40 23 22 14 -14 97 -15 97 -1 0 6
-19 10 -43 10 -70 0 -107 39 -71 74 19 19 114 22 132 4z"/>
<path d="M1124 1458 l-19 -23 23 19 c21 18 27 26 19 26 -2 0 -12 -10 -23 -22z"/>
<path d="M1074 1398 l-19 -23 23 19 c21 18 27 26 19 26 -2 0 -12 -10 -23 -22z"/>
<path d="M1355 1280 c-3 -6 1 -7 9 -4 18 7 21 14 7 14 -6 0 -13 -4 -16 -10z"/>
<path d="M1210 1090 c-9 -6 -10 -10 -3 -10 6 0 15 5 18 10 8 12 4 12 -15 0z"/>
<path d="M2186 732 c-2 -4 -1 -14 4 -22 7 -11 12 -12 21 -3 6 6 8 16 5 22 -8
13 -23 14 -30 3z"/>
<path d="M264 696 c-3 -8 -4 -25 -2 -38 3 -21 8 -23 53 -23 l50 0 0 35 c0 35
0 35 -48 38 -35 2 -49 -1 -53 -12z"/>
<path d="M470 670 l0 -40 49 0 c41 0 51 4 56 20 3 11 3 29 0 40 -5 16 -15 20
-56 20 l-49 0 0 -40z"/>
<path d="M1136 684 c-9 -23 -8 -24 19 -24 23 0 24 2 13 20 -15 24 -24 25 -32
4z"/>
<path d="M1830 695 c0 -13 9 -16 48 -13 26 2 47 8 47 13 0 6 -21 11 -47 13
-39 3 -48 0 -48 -13z"/>
<path d="M4668 1941 l-108 -6 60 -48 60 -48 0 -72 -1 -72 -20 28 c-98 131
-299 16 -299 -171 0 -62 46 -141 99 -169 75 -40 164 -26 200 30 l21 32 0 -32
0 -33 142 0 c78 0 138 4 133 8 -6 5 -34 28 -62 51 l-53 43 0 234 0 234 -32 -2
c-18 -1 -81 -4 -140 -7z m-38 -251 c38 -20 53 -141 26 -205 -16 -37 -48 -52
-86 -40 -59 19 -69 200 -13 243 20 15 48 16 73 2z"/>
<path d="M3365 1927 c-146 -49 -248 -152 -261 -263 -9 -72 10 -129 62 -184
200 -213 613 -149 614 96 0 16 -7 39 -15 50 -14 18 -14 18 -15 -7 0 -41 -40
-90 -95 -118 -42 -22 -63 -26 -135 -26 -63 0 -95 5 -122 18 -90 45 -107 217
-30 299 34 37 83 51 156 46 90 -8 156 -46 213 -123 l22 -30 1 118 c0 64 -3
117 -6 117 -3 0 -19 -11 -34 -24 l-28 -23 -60 29 c-49 24 -77 31 -144 34 -53
3 -98 -1 -123 -9z"/>
<path d="M3983 1762 c-28 -10 -67 -30 -86 -45 -41 -31 -77 -100 -77 -145 0
-189 289 -282 449 -145 91 77 94 182 8 271 -72 75 -191 101 -294 64z m142 -86
c28 -28 39 -79 32 -142 -9 -86 -76 -120 -134 -70 -26 23 -28 29 -28 104 0 71
3 83 24 106 31 33 74 34 106 2z"/>
<path d="M5101 1766 c-49 -18 -111 -74 -132 -120 -51 -113 9 -233 137 -272
140 -42 304 16 304 106 l0 33 -22 -20 c-74 -67 -242 -55 -267 19 -6 17 -11 33
-11 34 0 2 68 4 150 4 83 0 150 4 150 8 0 31 -35 113 -62 146 -56 68 -159 94
-247 62z m142 -68 c9 -7 21 -28 26 -45 l10 -33 -83 0 -83 0 5 25 c9 52 84 83
125 53z"/>
<path d="M4510 911 c-37 -55 -135 -137 -176 -147 -15 -4 -24 -13 -24 -25 0
-16 8 -19 45 -19 l45 0 0 -117 c0 -74 5 -127 13 -142 43 -84 200 -95 248 -17
30 49 21 135 -15 149 -12 5 -13 -1 -9 -28 10 -63 -50 -115 -77 -66 -5 11 -10
65 -10 120 l0 101 35 0 c30 0 37 5 55 40 l20 40 -54 0 -55 0 -3 81 -3 82 -35
-52z"/>
<path d="M2403 887 l68 -62 -1 -144 0 -145 -67 -62 -68 -63 185 -1 184 0 -62
63 -62 63 1 159 1 160 35 -110 c19 -60 50 -161 69 -223 l35 -113 51 3 51 3 66
229 66 229 3 -169 3 -168 -63 -63 -62 -63 219 0 220 1 -67 63 -68 62 0 145 -1
144 68 62 68 62 -205 1 -205 0 -35 -122 -35 -121 -38 121 -38 122 -192 0 -192
-1 68 -62z"/>
<path d="M3447 800 c-79 -20 -127 -60 -127 -107 0 -32 27 -53 68 -53 62 0 80
9 75 35 -6 29 29 55 74 55 38 0 63 -22 63 -56 0 -26 3 -24 -115 -48 -92 -19
-115 -29 -143 -59 -28 -30 -39 -95 -22 -126 16 -30 69 -51 130 -51 62 0 110
19 138 54 l21 27 13 -28 c18 -39 54 -55 112 -50 39 3 55 11 73 31 24 29 30 74
13 107 -16 30 -28 23 -32 -18 -2 -26 -8 -38 -18 -38 -12 0 -16 23 -20 125 -5
137 -13 161 -63 187 -38 20 -181 27 -240 13z m153 -246 c0 -35 -50 -84 -87
-84 -35 0 -53 16 -53 46 0 27 20 44 63 54 63 15 77 12 77 -16z"/>
<path d="M3932 790 c-53 -24 -77 -72 -69 -139 9 -82 79 -125 217 -137 92 -7
110 -12 110 -29 0 -20 -42 -29 -97 -21 -53 7 -142 46 -190 82 l-33 25 0 -91 0
-90 37 23 37 24 50 -19 c67 -26 170 -33 221 -16 108 36 113 183 8 244 -35 21
-64 28 -146 35 -56 4 -103 8 -104 9 -2 0 -3 7 -3 15 0 49 129 45 232 -8 l68
-35 0 69 0 69 -36 -15 c-33 -13 -41 -13 -95 5 -74 25 -151 25 -207 0z"/>
<path d="M4851 796 c-49 -18 -111 -74 -132 -120 -51 -113 9 -233 137 -272 140
-42 304 16 304 106 l0 33 -22 -20 c-74 -67 -242 -55 -267 19 -6 17 -11 33 -11
34 0 2 68 4 150 4 83 0 150 4 150 8 0 31 -35 113 -62 146 -56 68 -159 94 -247
62z m142 -68 c9 -7 21 -28 26 -45 l10 -33 -83 0 -83 0 5 25 c9 52 84 83 125
53z"/>
<path d="M5772 790 c-53 -24 -77 -72 -69 -139 9 -82 79 -125 217 -137 92 -7
110 -12 110 -29 0 -20 -42 -29 -97 -21 -53 7 -142 46 -190 82 l-33 25 0 -91 0
-90 37 23 37 24 50 -19 c67 -26 170 -33 221 -16 108 36 113 183 8 244 -35 21
-64 28 -146 35 -56 4 -103 8 -104 9 -2 0 -3 7 -3 15 0 49 129 45 232 -8 l68
-35 0 69 0 69 -36 -15 c-33 -13 -41 -13 -95 5 -74 25 -151 25 -207 0z"/>
<path d="M5226 791 l-60 -6 52 -47 52 -46 0 -88 0 -88 -52 -53 -52 -53 189 0
c104 0 185 4 180 8 -6 5 -34 28 -62 51 -52 42 -53 44 -53 94 1 68 30 134 64
143 41 10 59 -12 52 -63 l-6 -43 46 0 c77 0 113 58 84 134 -15 40 -67 68 -118
63 -48 -5 -75 -26 -103 -77 l-18 -35 -1 58 0 57 -67 -2 c-38 -1 -95 -4 -127
-7z"/>
</g>
</svg>
